<svg width="22" height="21" viewBox="0 0 22 21" fill="none" xmlns="http://www.w3.org/2000/svg">
<path d="M9.89985 0.100006L19.7988 1.51501L21.2128 11.415L12.0208 20.607C11.8333 20.7945 11.579 20.8998 11.3138 20.8998C11.0487 20.8998 10.7944 20.7945 10.6068 20.607L0.706849 10.707C0.519378 10.5195 0.414063 10.2652 0.414062 10C0.414063 9.73484 0.519378 9.48053 0.706849 9.29301L9.89985 0.100006ZM12.7278 8.58601C12.9136 8.7717 13.1341 8.91898 13.3768 9.01945C13.6195 9.11992 13.8796 9.17161 14.1422 9.17156C14.4049 9.17151 14.6649 9.11973 14.9076 9.01918C15.1502 8.91862 15.3707 8.77126 15.5563 8.58551C15.742 8.39975 15.8893 8.17924 15.9898 7.93657C16.0903 7.69389 16.1419 7.4338 16.1419 7.17115C16.1419 6.9085 16.0901 6.64843 15.9895 6.40579C15.889 6.16315 15.7416 5.9427 15.5558 5.75701C15.3701 5.57132 15.1496 5.42403 14.9069 5.32356C14.6642 5.22309 14.4041 5.17141 14.1415 5.17145C13.611 5.17155 13.1024 5.38236 12.7273 5.75751C12.3523 6.13266 12.1417 6.64141 12.1418 7.17186C12.1419 7.70231 12.3527 8.21099 12.7278 8.58601Z" fill="white"/>
</svg>
